<svg width="47" height="44" viewBox="0 0 47 44" fill="none" xmlns="http://www.w3.org/2000/svg">
<path d="M3.43677 0.136719C1.79119 0.136719 0.436768 1.52453 0.436768 3.20815V12.4224V22.6605V40.0653C0.436768 41.7489 1.79119 43.1367 3.43677 43.1367H43.4368C45.0818 43.1367 46.4368 41.7495 46.4368 40.0653V22.6605V12.4224V7.30339C46.4368 5.61915 45.0818 4.23196 43.4368 4.23196H16.4368C16.5233 4.23196 16.4058 4.23233 16.1614 3.94401C15.917 3.65569 15.6162 3.17737 15.302 2.66425C14.9878 2.15112 14.6585 1.60362 14.2434 1.12254C13.8283 0.641448 13.2555 0.136719 12.4368 0.136719H3.43677ZM3.43677 2.18434H12.4368C12.376 2.18434 12.4979 2.19151 12.7454 2.47828C12.9928 2.76505 13.294 3.24136 13.6067 3.75205C13.9194 4.26273 14.2432 4.80822 14.6497 5.28776C15.0561 5.7673 15.6157 6.27958 16.4368 6.27958H43.4368C43.9997 6.27958 44.4368 6.72705 44.4368 7.30339V9.54297C44.1219 9.42671 43.7886 9.351 43.4368 9.351H3.43677C3.08493 9.351 2.75166 9.42671 2.43677 9.54297V3.20815C2.43677 2.63119 2.87234 2.18434 3.43677 2.18434ZM3.43677 11.3986H43.4368C44.0018 11.3986 44.4368 11.844 44.4368 12.4224V22.6605V40.0653C44.4368 40.6416 43.9997 41.0891 43.4368 41.0891H3.43677C2.87234 41.0891 2.43677 40.6422 2.43677 40.0653V22.6605V12.4224C2.43677 11.844 2.87174 11.3986 3.43677 11.3986Z" fill="black"/>
</svg>
