<svg width="51" height="44" viewBox="0 0 51 44" fill="none" xmlns="http://www.w3.org/2000/svg">
<path d="M3.17632 0.136719C1.53179 0.136719 0.176322 1.49219 0.176322 3.13672V40.043C0.113822 40.2734 0.137259 40.5156 0.238822 40.7305C0.520072 42.0937 1.73882 43.1367 3.17632 43.1367H42.1763C43.6685 43.1367 44.8951 42.0117 45.1138 40.5742C45.1216 40.5117 45.1412 40.4492 45.1451 40.3867C45.1451 40.3672 45.1451 40.3437 45.1451 40.3242L45.1763 40.168C45.1763 40.1562 45.1763 40.1484 45.1763 40.1367L50.1451 13.3242L50.1763 13.2305V13.1367C50.1763 11.4922 48.8209 10.1367 47.1763 10.1367V7.13672C47.1763 5.49219 45.8209 4.13672 44.1763 4.13672H18.2076C18.2115 4.14062 18.1998 4.13672 18.1763 4.13672C18.1451 4.11328 18.0552 4.03906 17.8951 3.85547C17.649 3.57422 17.3638 3.10547 17.0513 2.60547C16.7388 2.10547 16.4029 1.57422 15.9888 1.10547C15.5748 0.636719 14.9966 0.136719 14.1763 0.136719H3.17632ZM3.17632 2.13672H14.1763C14.1138 2.13672 14.2427 2.13672 14.4888 2.41797C14.7349 2.69922 15.0201 3.16797 15.3326 3.66797C15.6451 4.16797 15.9888 4.69922 16.3951 5.16797C16.8013 5.63672 17.356 6.13672 18.1763 6.13672H44.1763C44.7388 6.13672 45.1763 6.57422 45.1763 7.13672V10.1367H8.17632C6.6021 10.1367 5.3482 11.4023 5.23882 12.9492H5.20757L5.17632 13.1367L2.17632 29.3242V3.13672C2.17632 2.57422 2.61382 2.13672 3.17632 2.13672ZM8.17632 12.1367H47.1763C47.7388 12.1367 48.1763 12.5742 48.1763 13.1367L43.2701 39.668L43.2388 39.7305C43.2271 39.7695 43.2154 39.8125 43.2076 39.8555C43.1959 39.8945 43.1841 39.9375 43.1763 39.9805C43.1763 40 43.1763 40.0234 43.1763 40.043C43.1763 40.0547 43.1763 40.0625 43.1763 40.0742C43.1607 40.125 43.1529 40.1758 43.1451 40.2305C43.1412 40.2617 43.149 40.293 43.1451 40.3242C43.1412 40.3672 43.1412 40.4062 43.1451 40.4492C43.0201 40.8555 42.6334 41.1367 42.1763 41.1367H3.17632C2.61382 41.1367 2.17632 40.6992 2.17632 40.1367L7.14507 13.3242L7.17632 13.2305V13.1367C7.17632 12.5742 7.61382 12.1367 8.17632 12.1367Z" fill="black"/>
</svg>
